# AST/ASF file generated using VICON BodyLanguage
# -----------------------------------------------
:version 1.10
:name VICON
:units
  mass 1.0
  length 0.45
  angle deg
:documentation
   .ast/.asf automatically generated from VICON data using
   VICON BodyBuilder and BodyLanguage model FoxedUp or BRILLIANT.MOD
:root
   order TX TY TZ RX RY RZ
   axis XYZ
   position 0 0 0  
   orientation 0 0 0 
:bonedata
  begin
     id 1 
     name lhipjoint
     direction 0.61886 -0.69539 0.365302 
     length 2.20474 
     axis 0 0 0  XYZ
  end
  begin
     id 2 
     name lfemur
     direction 0.34202 -0.939693 0  
     length 6.65149  
     axis 0 0 20  XYZ
    dof rx ry rz
    limits (-160.0 20.0)
           (-70.0 70.0)
           (-60.0 70.0)
  end
  begin
     id 3 
     name ltibia
     direction 0.34202 -0.939693 0   
     length 6.35814   
     axis 0 0 20   XYZ
    dof rx
    limits (-10.0 170.0)
  end
  begin
     id 4 
     name lfoot
     direction 0.101224 -0.278109 0.955201   
     length 2.18766   
     axis -90 7.62852e-016 20   XYZ
    dof rx rz
    limits (-45.0 90.0)
           (-70.0 20.0)
  end
  begin
     id 5 
     name ltoes
     direction 1.53524e-011 -4.21877e-011 1   
     length 1.09206   
     axis -90 7.62852e-016 20   XYZ
    dof rx
    limits (-90.0 20.0)
  end
  begin
     id 6 
     name rhipjoint
     direction -0.600207 -0.708087 0.371972   
     length 2.1652  
     axis 0 0 0  XYZ 
  end
  begin
     id 7 
     name rfemur
     direction -0.34202 -0.939693 0   
     length 6.54691   
     axis 0 0 -20   XYZ
    dof rx ry rz
    limits (-160.0 20.0)
           (-70.0 70.0)
           (-70.0 60.0)
  end
  begin
     id 8 
     name rtibia
     direction -0.34202 -0.939693 0   
     length 6.37474   
     axis 0 0 -20   XYZ
    dof rx
    limits (-10.0 170.0)
 end
 begin
     id 9 
     name rfoot
     direction -0.111266 -0.3057 0.945604   
     length 2.00903  
     axis -90 -7.62852e-016 -20   XYZ
    dof rx rz
    limits (-45.0 90.0)
           (-20.0 70.0)
  end
  begin
     id 10 
     name rtoes
     direction -1.5362e-011 -4.21913e-011 1   
     length 1.00221   
     axis -90 -7.62852e-016 -20   XYZ
    dof rx
    limits (-90.0 20.0)
  end
  begin
     id 11 
     name lowerback
     direction -0.0224561 0.999731 -0.00577314   
     length 2.10409   
     axis 0 0 0   XYZ
    dof rx ry rz
    limits (-20.0 45.0)
           (-30.0 30.0)
           (-30.0 30.0)
  end
  begin
     id 12 
     name upperback
     direction 0.0213126 0.999185 -0.0342817   
     length 2.09783   
     axis 0 0 0   XYZ
    dof rx ry rz
    limits (-20.0 45.0)
           (-30.0 30.0)
           (-30.0 30.0)
  end
  begin
     id 13 
     name thorax
     direction 0.0312356 0.999036 -0.0308451   
     length 2.09788   
     axis 0 0 0   XYZ
    dof rx ry rz
    limits (-20.0 45.0)
           (-30.0 30.0)
           (-30.0 30.0)
  end
  begin
     id 14 
     name lowerneck
     direction -0.0114419 0.996481 0.0830329   
     length 1.38575   
     axis 0 0 0   XYZ
    dof rx ry rz
    limits (-20.0 45.0)
           (-30.0 30.0)
           (-30.0 30.0)
  end
  begin
     id 15 
     name upperneck
     direction -0.0075675 0.996187 -0.0869092   
     length 1.39401   
     axis 0 0 0   XYZ
    dof rx ry rz
    limits (-20.0 45.0)
           (-30.0 30.0)
           (-30.0 30.0)
  end
  begin
     id 16
     name head
     direction -0.00222073 0.999264 -0.0382974  
     length 1.3964  
     axis 0 0 0   XYZ
    dof rx ry rz
    limits (-20.0 45.0)
           (-30.0 30.0)
           (-30.0 30.0)
  end
  begin
     id 17 
     name lclavicle
     direction 0.965962 0.222138 0.132556  
     length 2.81514  
     axis 0 0 0   XYZ
    dof ry rz
    limits (-20.0 10.0)
           (0.0 20.0)
  end
  begin
     id 18 
     name lhumerus
     direction 1 -4.48972e-011 7.03471e-018   
     length 4.47366   
     axis 180 -30 -90   XYZ
    dof rx ry rz
    limits (-60.0 90.0)
           (-90.0 90.0)
           (-90.0 90.0)
  end
  begin
     id 19
     name lradius
     direction 1 -4.48951e-011 -6.22192e-028   
     length 3.19948   
     axis 180 -30 -90   XYZ
    dof rx
    limits (-10.0 170.0)
  end
  begin
     id 20
     name lwrist
     direction 1 -4.48967e-011 -1.24264e-027   
     length 1.59974   
     axis 1.40095e-015 90 90   XYZ
    dof ry
    limits (-180.0 0.0)
 end
  begin
     id 21 
     name lhand
     direction 1 -4.4897e-011 -2.48528e-027   
     length 0.492667   
     axis 1.58582e-015 90 90   XYZ
    dof rx rz
    limits (-90.0 90.0)
           (-45.0 45.0)
  end
  begin
     id 22 
     name lfingers
     direction 1 -4.48996e-011 -4.97056e-027   
     length 0.397201   
     axis 3.17164e-015 90 90   XYZ
    dof rx
    limits (0.0 90.0)
  end
  begin
     id 23
     name lthumb
     direction 0.707107 -6.34981e-011 0.707107   
     length 0.570303   
     axis -90 45 2.85299e-015   XYZ
    dof rx rz
    limits (-45.0 45.0)
           (-45.0 45.0)
  end
  begin
     id 24 
     name rclavicle
     direction -0.961164 0.229034 0.153972   
     length 3.09348  
     axis 0 0 0   XYZ 
    dof ry rz
    limits (-10.0 20.0)
           (-20.0 0.0)
  end
  begin
     id 25 
     name rhumerus
     direction -1 -4.48971e-011 -9.06263e-028  
     length 4.3269   
     axis 180 30 90   XYZ
    dof rx ry rz
    limits (-90.0 60.0)
           (-90.0 90.0)
           (-90.0 90.0)
  end
  begin
     id 26 
     name rradius
     direction -1 -4.48953e-011 1.44659e-027   
     length 3.1896   
     axis 180 30 90   XYZ
    dof rx
    limits (-10.0 170.0)
  end
  begin
     id 27 
     name rwrist
     direction -1 -4.48988e-011 -1.24264e-027   
     length 1.5948   
     axis 1.40095e-015 -90 -90   XYZ
    dof ry
    limits (-180.0 0.0)
  end
  begin
     id 28
     name rhand
     direction -1 -4.49033e-011 -2.48528e-027   
     length 0.464496   
     axis 1.58582e-015 -90 -90   XYZ
    dof rx rz
    limits (-90.0 90.0)
           (-45.0 45.0)
  end
  begin
     id 29
     name rfingers
     direction -1 -4.48905e-011 -4.97056e-027   
     length 0.374489   
     axis 3.17164e-015 -90 -90   XYZ
    dof rx
    limits (0.0 90.0)
  end
  begin
     id 30
     name rthumb
     direction -0.707107 -6.34909e-011 0.707107   
     length 0.537693   
     axis -90 -45 -2.85299e-015   XYZ
    dof rx rz
    limits (-45.0 45.0)
           (-45.0 45.0)
  end
:hierarchy
  begin
    root lhipjoint rhipjoint lowerback
    lhipjoint lfemur
    lfemur ltibia
    ltibia lfoot
    lfoot ltoes
    rhipjoint rfemur
    rfemur rtibia
    rtibia rfoot
    rfoot rtoes
    lowerback upperback
    upperback thorax
    thorax lowerneck lclavicle rclavicle
    lowerneck upperneck
    upperneck head
    lclavicle lhumerus
    lhumerus lradius
    lradius lwrist
    lwrist lhand lthumb
    lhand lfingers
    rclavicle rhumerus
    rhumerus rradius
    rradius rwrist
    rwrist rhand rthumb
    rhand rfingers
  end

#!OML:ASF G:\acrobat\cartwheel_test 2\Patient 1\Session 2\acrobat4.ASF
:FULLY-SPECIFIED
:DEGREES
3332
root 9.56235 20.762 6.51635 548.397 -2.61574 176.363
lowerback -6.47018 -0.577171 -7.93492
upperback -1.78249 -0.374295 0.22608
thorax 1.8227 -0.255244 4.66465
lowerneck -12.6567 -1.30152 -4.22199
upperneck 36.882 -5.89048 1.67585
head 15.1506 -4.31003 0.100519
rclavicle 2.76124e-015 -1.92821e-014
rhumerus -40.4433 -13.4859 -60.2652
rradius 25.6102
rwrist 9.73064
rhand -12.4782 -29.2729
rfingers 7.12502
rthumb 13.5961 301.191
lclavicle 2.76124e-015 -1.92821e-014
lhumerus -35.8968 -14.1434 90.4129
lradius 44.2182
lwrist 21.2005
lhand -30.3986 723.219
lfingers 7.12502
lthumb -3.70234 -686.833
rfemur -39.1277 11.6418 18.4761
rtibia 44.0047
rfoot -15.9907 -18.1733
rtoes 3.73941
lfemur -12.2388 0.257585 -31.0208
ltibia 36.2639
lfoot -34.4796 7.89839
ltoes -17.6647
3333
root 9.55502 20.7595 6.51283 548.408 -2.54493 176.405
lowerback -6.32494 -0.515738 -7.71775
upperback -1.67816 -0.305186 0.352557
thorax 1.84173 -0.21866 4.68036
lowerneck -12.5752 -1.37854 -4.21606
upperneck 36.5134 -5.8073 1.47881
head 14.9418 -4.2669 0.0507009
rclavicle -3.47252e-015 2.06736e-014
rhumerus -40.4564 -13.6016 -60.4606
rradius 25.4194
rwrist 10.2668
rhand -13.4131 -28.3418
rfingers 7.12502
rthumb 12.695 302.064
lclavicle -3.47252e-015 2.06736e-014
lhumerus -36.1238 -14.6524 90.7253
lradius 44.3608
lwrist 21.1611
lhand -30.2297 723.234
lfingers 7.12502
lthumb -3.5393 -686.816
rfemur -39.1856 11.5775 18.5344
rtibia 44.1246
rfoot -16.1485 -18.2016
rtoes 3.78407
lfemur -12.1748 0.239006 -30.9965
ltibia 36.1293
lfoot -34.1408 7.25917
ltoes -15.9225
3334
root 9.54846 20.7639 6.50797 548.488 -2.52394 176.378
lowerback -6.33168 -0.515487 -7.59515
upperback -1.5327 -0.297361 0.473195
thorax 1.99698 -0.219697 4.73801
lowerneck -12.5179 -1.41403 -4.10916
upperneck 36.191 -5.67692 1.20086
head 14.755 -4.20419 -0.0444265
rclavicle -4.28629e-015 -1.07344e-014
rhumerus -40.3933 -13.6209 -60.7748
rradius 25.2793
rwrist 10.7395
rhand -13.9449 -27.8877
rfingers 7.12502
rthumb 12.1823 302.487
lclavicle -4.28629e-015 -1.07344e-014
lhumerus -36.0997 -14.9927 90.9507
lradius 44.1209
lwrist 21.1762
lhand -30.1301 722.902
lfingers 7.12502
lthumb -3.44314 -687.146
rfemur -39.273 11.3953 18.5302
rtibia 44.2368
rfoot -16.1113 -18.1362
rtoes 2.94146
lfemur -12.189 0.346127 -31.0482
ltibia 35.9954
lfoot -33.5702 6.81428
ltoes -14.2462
3335
root 9.53729 20.7741 6.50556 548.673 -2.65554 176.209
lowerback -6.33408 -0.57898 -7.52145
upperback -1.50306 -0.383374 0.537192
thorax 2.04142 -0.26347 4.75637
lowerneck -12.3308 -1.41521 -4.0787
upperneck 35.9886 -5.57274 0.985093
head 14.6032 -4.17599 -0.108059
rclavicle -4.74598e-015 -9.93923e-016
rhumerus -40.4617 -13.6359 -61.0068
rradius 25.1759
rwrist 11.3919
rhand -14.1931 -27.4788
rfingers 7.12502
rthumb 11.943 302.882
lclavicle -4.74598e-015 -9.93923e-016
lhumerus -36.2191 -15.1295 91.1053
lradius 43.7157
lwrist 21.0521
lhand -29.9184 722.925
lfingers 7.12502
lthumb -3.23861 -687.12
rfemur -39.4091 10.796 18.4161
rtibia 44.2898
rfoot -15.959 -17.8298
rtoes 0.635214
lfemur -12.3333 0.367579 -31.2872
ltibia 35.9495
lfoot -32.9288 6.85485
ltoes -13.3345
3336
root 9.52939 20.7771 6.50024 548.816 -2.84712 176.207
lowerback -6.29849 -0.585026 -7.26269
upperback -1.5352 -0.412555 0.579919
thorax 1.99135 -0.273832 4.65262
lowerneck -12.0291 -1.43015 -4.13747
upperneck 35.9267 -5.63128 1.01347
head 14.5101 -4.21685 -0.0868914
rclavicle -1.08089e-015 -8.94531e-015
rhumerus -40.7741 -13.973 -61.0837
rradius 25.0512
rwrist 12.2295
rhand -13.9108 -27.8112
rfingers 7.12502
rthumb 12.2151 302.565
lclavicle -1.08089e-015 -8.94531e-015
lhumerus -36.5591 -15.3448 91.1976
lradius 43.3122
lwrist 20.9721
lhand -29.9688 723.542
lfingers 7.12502
lthumb -3.2873 -686.504
rfemur -39.4696 10.7426 18.2993
rtibia 44.2463
rfoot -16.0508 -17.8832
rtoes 0.47655
lfemur -12.4788 0.275917 -31.3464
ltibia 36.0214
lfoot -32.2299 7.09054
ltoes -11.9224
3337
root 9.53255 20.7711 6.48706 548.802 -3.00771 176.491
lowerback -6.25884 -0.602155 -6.93145
upperback -1.45765 -0.452513 0.775051
thorax 2.05555 -0.293161 4.66632
lowerneck -11.9401 -1.44059 -4.18973
upperneck 35.9665 -5.64765 0.955056
head 14.5086 -4.24673 -0.104092
rclavicle -7.69048e-015 3.57812e-015
rhumerus -40.9168 -14.2408 -61.1825
rradius 25.0102
rwrist 13.3336
rhand -11.4576 -29.5438
rfingers 7.12502
rthumb 14.5796 300.989
lclavicle -7.69048e-015 3.57812e-015
lhumerus -36.7101 -15.2702 91.2219
lradius 42.64
lwrist 20.9611
lhand -30.1063 723.458
lfingers 7.12502
lthumb -3.4201 -686.59
rfemur -39.3576 11.8252 18.2299
rtibia 44.105
rfoot -16.5139 -18.7514
rtoes 2.66664
lfemur -12.538 0.227604 -31.0441
ltibia 36.2057
lfoot -31.5677 7.12885
ltoes -10.2957
